<svg xmlns="http://www.w3.org/2000/svg" width="220" height="32" fill="none" viewBox="0 0 220 32">
  <path fill="#121926" d="M61.65 27.412h5.76l6.655-18.304h-4.754L64.54 22.274 59.75 9.108h-4.754l6.655 18.304Z"/>
  <path fill="#121926" fill-rule="evenodd" d="M78.73 26.59c1.39.865 2.925 1.298 4.608 1.298 1.267 0 2.45-.25 3.547-.75a9.103 9.103 0 0 0 2.907-2.066A9.905 9.905 0 0 0 91.766 22a9.726 9.726 0 0 0 .714-3.73c0-1.78-.415-3.402-1.244-4.864a9.489 9.489 0 0 0-3.31-3.493c-1.377-.866-2.906-1.298-4.588-1.298-1.256 0-2.438.25-3.547.75a9.176 9.176 0 0 0-2.926 2.084 9.793 9.793 0 0 0-1.956 3.072c-.476 1.158-.713 2.408-.713 3.749 0 1.767.408 3.382 1.225 4.845a9.734 9.734 0 0 0 3.309 3.475Zm7.003-3.877a4.194 4.194 0 0 1-2.395.713 4.322 4.322 0 0 1-2.34-.676 5.126 5.126 0 0 1-1.701-1.866c-.427-.78-.64-1.651-.64-2.614 0-.927.207-1.786.621-2.579a5.087 5.087 0 0 1 1.683-1.901 4.164 4.164 0 0 1 2.377-.714 4.1 4.1 0 0 1 2.34.714 4.888 4.888 0 0 1 1.7 1.883c.427.78.64 1.646.64 2.597 0 .926-.207 1.78-.621 2.56a4.976 4.976 0 0 1-1.664 1.883Z" clip-rule="evenodd"/>
  <path fill="#121926" d="M94.964 20.647V9.127h4.462v10.35c0 .719.176 1.377.53 1.974a4.089 4.089 0 0 0 1.408 1.408 3.873 3.873 0 0 0 1.956.512c.731 0 1.39-.17 1.975-.512a4.091 4.091 0 0 0 1.407-1.408 3.802 3.802 0 0 0 .531-1.975V9.126h4.461l.018 18.286h-4.461l-.018-1.664a7.194 7.194 0 0 1-2.249 1.573 6.87 6.87 0 0 1-2.779.567c-1.329 0-2.542-.323-3.639-.97a7.615 7.615 0 0 1-2.633-2.614c-.646-1.097-.969-2.316-.969-3.657Zm35.481 3.437-4.022-2.176a4.796 4.796 0 0 1-1.481 1.116 4.221 4.221 0 0 1-1.81.402c-.878 0-1.67-.238-2.377-.713a5.12 5.12 0 0 1-1.682-1.884 5.435 5.435 0 0 1-.622-2.56c0-.926.207-1.78.622-2.56a5.083 5.083 0 0 1 1.682-1.901 4.09 4.09 0 0 1 2.377-.732c.609 0 1.2.134 1.773.403a4.477 4.477 0 0 1 1.518 1.133l4.022-2.157a9.421 9.421 0 0 0-3.163-2.798c-1.268-.695-2.651-1.042-4.15-1.042a8.54 8.54 0 0 0-3.548.75 9.176 9.176 0 0 0-2.925 2.084 9.785 9.785 0 0 0-1.956 3.072c-.476 1.158-.713 2.408-.713 3.749 0 1.767.408 3.382 1.225 4.845a9.728 9.728 0 0 0 3.309 3.475c1.39.865 2.925 1.298 4.608 1.298 1.499 0 2.882-.348 4.15-1.043a9.584 9.584 0 0 0 3.163-2.76Zm19.46-8.228v11.556h-4.462V17.026a3.71 3.71 0 0 0-.53-1.956 3.851 3.851 0 0 0-1.426-1.408 3.709 3.709 0 0 0-1.957-.53c-.719 0-1.377.176-1.974.53a3.894 3.894 0 0 0-1.408 1.408 3.814 3.814 0 0 0-.512 1.956v10.386h-4.461l-.017-25.564L137.618 0l.018 10.754a6.737 6.737 0 0 1 2.231-1.554 6.726 6.726 0 0 1 2.797-.585c1.329 0 2.542.329 3.639.987a7.263 7.263 0 0 1 2.614 2.615c.658 1.085.988 2.298.988 3.639Z"/>
  <path fill="#121926" fill-rule="evenodd" d="M156.628 26.59c1.389.865 2.925 1.298 4.607 1.298 1.829 0 3.48-.512 4.955-1.536a9.777 9.777 0 0 0 3.328-3.986l-4.553-1.061a4.946 4.946 0 0 1-1.609 1.573 3.938 3.938 0 0 1-2.121.548c-.756-.012-1.432-.177-2.029-.494a4.468 4.468 0 0 1-1.481-1.298 5.414 5.414 0 0 1-.841-1.847h13.365c.207-1.463.122-2.864-.256-4.205a10.152 10.152 0 0 0-1.81-3.584 8.892 8.892 0 0 0-3.035-2.469c-1.182-.61-2.487-.914-3.913-.914-1.255 0-2.438.25-3.547.75a9.176 9.176 0 0 0-2.925 2.084 9.805 9.805 0 0 0-1.957 3.072 9.734 9.734 0 0 0-.713 3.73c0 1.768.409 3.383 1.225 4.846.829 1.463 1.932 2.627 3.31 3.492Zm8.246-12.124c.439.585.725 1.244.859 1.975h-8.996a5.173 5.173 0 0 1 .878-1.993 4.866 4.866 0 0 1 1.591-1.408 4.033 4.033 0 0 1 2.029-.53 4.13 4.13 0 0 1 2.048.53 4.821 4.821 0 0 1 1.591 1.426Z" clip-rule="evenodd"/>
  <path fill="#121926" d="m172.481 27.412-.019-18.285h4.462l.018 1.627a6.737 6.737 0 0 1 2.231-1.554 6.723 6.723 0 0 1 2.797-.585c.67 0 1.341.097 2.011.292l-1.755 4.499a3.757 3.757 0 0 0-1.39-.275c-.719 0-1.377.177-1.974.53a3.894 3.894 0 0 0-1.408 1.409 3.814 3.814 0 0 0-.512 1.956v10.386h-4.461Zm23.979 0h5.138l-6.253-10.806 6.272-7.48h-5.833l-6.052 7.224V.727l-4.461 1.848v24.837h4.461V23.28l2.56-3.054 4.168 7.186Zm6.792-6.765V9.127h4.461v10.35c0 .719.177 1.377.53 1.974a4.103 4.103 0 0 0 1.408 1.408 3.88 3.88 0 0 0 1.957.512c.731 0 1.389-.17 1.974-.512a4.094 4.094 0 0 0 1.408-1.408c.354-.597.53-1.255.53-1.975V9.126h4.462L220 27.413h-4.461l-.019-1.664a7.17 7.17 0 0 1-2.249 1.573 6.864 6.864 0 0 1-2.779.567c-1.328 0-2.541-.323-3.638-.97a7.614 7.614 0 0 1-2.633-2.614c-.646-1.097-.969-2.316-.969-3.657Z"/>
  <path fill="#5925DC" d="M4.5 32A4.5 4.5 0 0 1 0 27.5v-18A4.5 4.5 0 0 1 4.5 5h35.996a4.5 4.5 0 0 1 4.5 4.5v1.043c0 .954-.624 1.774-1.424 2.293a6.745 6.745 0 0 0-3.076 5.664 6.745 6.745 0 0 0 3.076 5.664c.8.52 1.424 1.34 1.424 2.293V27.5a4.5 4.5 0 0 1-4.5 4.5H4.5Z"/>
  <path fill="#BDB4FE" d="M35.997 11.75a1.5 1.5 0 0 0-1.5-1.5H7.499a1.5 1.5 0 0 0 0 3h26.998a1.5 1.5 0 0 0 1.5-1.5Zm0 13.5a1.5 1.5 0 0 0-1.5-1.5h-15.26a1.5 1.5 0 0 0 0 3h15.26a1.5 1.5 0 0 0 1.5-1.5Z"/>
  <path fill="#F4F3FF" d="M35.997 18.5a1.5 1.5 0 0 0-1.5-1.5H29.22a1.5 1.5 0 0 0 0 3h5.276a1.5 1.5 0 0 0 1.5-1.5Z"/>
  <path fill="#BDB4FE" d="M15.129 25.25a1.5 1.5 0 0 0-1.5-1.5h-6.13a1.5 1.5 0 0 0 0 3h6.13a1.5 1.5 0 0 0 1.5-1.5Z"/>
  <path fill="#F4F3FF" d="M24.618 18.5a1.5 1.5 0 0 0-1.5-1.5H7.5a1.5 1.5 0 0 0 0 3h15.62a1.5 1.5 0 0 0 1.5-1.5Z"/>
</svg>
